<svg version="1.2" xmlns="http://www.w3.org/2000/svg" viewBox="0 0 400 400" width="400" height="400">
	<style>
		.s0 { fill: #000000 } 
	</style>
	<path id="XNB" class="s0" aria-label="XNB"  d="m148.4 128h41l-69.6 72.6 18 71.4h-41l-11.2-46-41.4 46h-41l66-71.4-14.4-72.6h41l8.1 46.8zm105.8 0h36l-25.2 144h-36.2l-25.2-78.8-13.6 78.8h-36.2l25.4-144h37.2l24.8 73.6zm44 0h58q22.8 0 32.4 10 7.2 7.6 7.2 19.2 0 4-0.8 8.4l-1.8 9.6q-2.2 11.4-8.6 17.8-6.2 6.4-11 6.4l-0.2 1.6q5.6 0 11.4 6.2 5.8 6.2 5.8 14.6 0 3.4-0.8 7.2l-1.2 6.2q-3.2 17.2-15.4 27-12 9.8-33.6 9.8h-66.8zm40 85.2h-19l-4.8 27.6h19q0.4 0 0.8 0 9.2 0 14.6-4.2 5.4-4.4 5.4-10.6 0-12.8-16-12.8zm5.4-54h-15l-5.2 29.8h14.8q19.2 0 19.2-16.8 0-5.8-3.6-9.4-3.4-3.6-10.2-3.6z"/>
</svg>